<?xml version="1.0" encoding="UTF-8"?>
<svg width="430px" height="411px" viewBox="0 0 430 411" version="1.1" xmlns="http://www.w3.org/2000/svg" xmlns:xlink="http://www.w3.org/1999/xlink">
    <!-- Generator: Sketch 54.1 (76490) - https://sketchapp.com -->
    <title>content/illustration/alacarte</title>
    <desc>Created with Sketch.</desc>
    <g id="content/illustration/alacarte" stroke="none" stroke-width="1" fill="none" fill-rule="evenodd">
        <g id="Group" transform="translate(53.000000, 13.000000)">
            <path d="M324,235.359308 L324,291.055087 L162,384 L0,291.055087 L0,235.163752 L162,140 L324,235.359308 Z M0,236 L162,329.04606 L0,236 Z M162,329.04606 L162,384 L162,329.04606 Z M160.55703,329.04606 L324,236" id="Path-5-Copy-7" stroke="#FFFFFF" fill="#2A2F36"></path>
            <path d="M288,150.121257 L288,202.755413 L162,275 L36,202.755413 L36,149.969255 L162,76 L288,150.121257 Z M36,151 L162,223.137614 L36,151 Z M162,223.137614 L162,275 L162,223.137614 Z M160.87769,223.137614 L288,151" id="Path-5-Copy-8" stroke="#FFFFFF" fill="#2A2F36"></path>
            <path d="M247,79.9107961 L247,115.352891 L162,164 L77,115.352891 L77,79.8084428 L162,30 L247,79.9107961 Z M77,80 L162,128.867416 L77,80 Z M162,128.867416 L162,164 L162,128.867416 Z M161.242886,128.867416 L247,80" id="Path-5-Copy-9" stroke="#FFFFFF" fill="#2A2F36"></path>
            <circle id="Oval" fill="#DC4133" cx="162.5" cy="36.5" r="36.5"></circle>
        </g>
    </g>
</svg>
