<?xml version="1.0" encoding="UTF-8"?>
<svg width="430px" height="411px" viewBox="0 0 430 411" version="1.1" xmlns="http://www.w3.org/2000/svg" xmlns:xlink="http://www.w3.org/1999/xlink">
    <!-- Generator: Sketch 53.2 (72643) - https://sketchapp.com -->
    <title>content/illustration/strategy</title>
    <desc>Created with Sketch.</desc>
    <g id="content/illustration/strategy" stroke="none" stroke-width="1" fill="none" fill-rule="evenodd">
        <g id="Group" transform="translate(20.000000, 0.000000)">
            <g id="Group-Copy" transform="translate(5.045161, 1.524390)" fill="#2A2F36" stroke="#FFFFFF" stroke-linecap="round" stroke-linejoin="round">
                <polygon id="Rectangle-3-Copy" points="53.7772784 95.6901799 167.288834 31.4569182 112.851803 1.49213975e-13 0.647171635 64.8441157"></polygon>
                <polygon id="Path-8-Copy" points="55.3133138 95.24142 53.8452171 321.285382 167.641435 255.34291 167.270578 31.1562626"></polygon>
                <polygon id="Rectangle-2-Copy" points="-2.48689958e-14 64.5379726 55.3133138 95.24142 55.3133138 322.23497 -2.48689958e-14 291.611351"></polygon>
            </g>
            <g id="Group-Copy-3" transform="translate(116.038710, 0.000000)" fill="#2A2F36" stroke="#FFFFFF" stroke-linecap="round" stroke-linejoin="round">
                <polygon id="Rectangle-3-Copy" points="53.7772784 95.6901799 167.288834 31.4569182 112.851803 1.49213975e-13 0.647171635 64.8441157"></polygon>
                <polygon id="Path-8-Copy" points="55.3133138 95.24142 53.8452171 321.285382 167.641435 255.34291 167.270578 31.1562626"></polygon>
                <polygon id="Rectangle-2-Copy" points="-2.48689958e-14 64.5379726 55.3133138 95.24142 55.3133138 322.23497 -2.48689958e-14 291.611351"></polygon>
            </g>
            <g id="Group-Copy-2" transform="translate(5.045161, 64.634146)" fill="#2A2F36" stroke="#FFFFFF" stroke-linecap="round" stroke-linejoin="round">
                <polygon id="Rectangle-3-Copy" points="53.7772784 95.6901799 167.288834 31.4569182 112.851803 1.49213975e-13 0.647171635 64.8441157"></polygon>
                <polygon id="Path-8-Copy" points="55.3133138 95.24142 53.8452171 321.285382 167.641435 255.34291 167.270578 31.1562626"></polygon>
                <polygon id="Rectangle-2-Copy" points="-2.48689958e-14 64.5379726 55.3133138 95.24142 55.3133138 322.23497 -2.48689958e-14 291.611351"></polygon>
            </g>
            <g id="Group-Copy-5" transform="translate(221.987097, 1.000000)" fill="#2A2F36" stroke="#FFFFFF" stroke-linecap="round" stroke-linejoin="round">
                <polygon id="Rectangle-3-Copy" points="53.7772784 95.6901799 167.288834 31.4569182 112.851803 1.49213975e-13 0.647171635 64.8441157"></polygon>
                <polygon id="Path-8-Copy" points="55.3133138 95.24142 53.8452171 321.285382 167.641435 255.34291 167.270578 31.1562626"></polygon>
                <polygon id="Rectangle-2-Copy" points="-2.48689958e-14 64.5379726 55.3133138 95.24142 55.3133138 322.23497 -2.48689958e-14 291.611351"></polygon>
            </g>
            <g id="Group-Copy-6" transform="translate(0.000000, 130.268293)" fill="#2A2F36" stroke="#FFFFFF" stroke-linecap="round" stroke-linejoin="round">
                <polygon id="Rectangle-3-Copy" points="53.7772784 95.6901799 167.288834 31.4569182 112.851803 1.49213975e-13 0.647171635 64.8441157"></polygon>
                <polygon id="Path-8-Copy" points="55.3133138 95.24142 53.8452171 280.895138 167.641435 214.952666 167.270578 31.1562626"></polygon>
                <polygon id="Rectangle-2-Copy" points="-2.48689958e-14 64.5379726 55.3133138 95.24142 55.3133138 279.320336 -2.48689958e-14 248.696717"></polygon>
            </g>
            <ellipse id="Oval" fill="#DC4133" cx="198.482155" cy="135.079268" rx="34.4821554" ry="34.0792683"></ellipse>
            <g id="Group-Copy-8" transform="translate(221.987097, 63.109756)" fill="#2A2F36" stroke="#FFFFFF" stroke-linecap="round" stroke-linejoin="round">
                <polygon id="Rectangle-3-Copy" points="53.7772784 95.6901799 167.288834 31.4569182 112.851803 1.49213975e-13 0.647171635 64.8441157"></polygon>
                <polygon id="Path-8-Copy" points="55.3133138 95.24142 53.8452171 285.943919 167.641435 220.001446 167.270578 31.1562626"></polygon>
            </g>
            <g id="Group-Copy-7" transform="translate(110.993548, 127.743902)" fill="#2A2F36" stroke="#FFFFFF" stroke-linecap="round" stroke-linejoin="round">
                <polygon id="Rectangle-3-Copy" points="53.7772784 95.6901799 167.288834 31.4569182 112.851803 1.49213975e-13 0.647171635 64.8441157"></polygon>
                <polygon id="Path-8-Copy" points="55.3133138 95.24142 53.8452171 283.419529 167.641435 217.477056 167.270578 31.1562626"></polygon>
                <polygon id="Rectangle-2-Copy" points="-2.48689958e-14 64.5379726 55.3133138 95.24142 55.3133138 281.844726 -2.48689958e-14 251.221107"></polygon>
            </g>
            <g id="Group-Copy-9" transform="translate(221.987097, 125.219512)" fill="#2A2F36" stroke="#FFFFFF" stroke-linecap="round" stroke-linejoin="round">
                <polygon id="Rectangle-3-Copy" points="53.7772784 95.6901799 167.288834 31.4569182 112.851803 0 0.647171635 64.8441157"></polygon>
                <polygon id="Path-8-Copy" points="55.3133138 95.24142 53.8452171 285.943919 167.641435 220.001446 167.270578 31.1562626"></polygon>
                <polygon id="Rectangle-2-Copy" points="0 64.5379726 55.3133138 95.24142 55.3133138 284.369117 0 253.745498"></polygon>
            </g>
        </g>
    </g>
</svg>
