<svg viewBox="0 0 500 166" title="Planetary">
    <path d="M500 166H0V0h500v166zM8.3 157.7h483.4V8.3H8.3v149.4z"></path>
    <path d="M58.3 126.5v-87h19.1c13.3 0 16 6.4 16 16.1v8c0 10.9-5.2 16-16.3 16h-9.3v46.9h-9.5zm9.4-55.3h8.7c5 0 7.6-2.7 7.6-7.9v-8.7c0-5.2-2.7-7.9-7.8-7.9h-8.5v24.5zM102.9 126.5v-87h9.5v78.3h14.9v8.7h-24.4zM216.5 126.5l-21.4-66.2v66.2h-8v-87h9.5l21.6 64.8V39.5h7.6v87h-9.3zM239.3 126.5v-87h28.1v8.8h-18.6v21.4h16.1v8.4h-16.1v39.7h18.6v8.7h-28.1zM289.5 126.5V48.3h-12.1v-8.8h33.8v8.8H299v78.2h-9.5zM418.6 126.5V82.7l-13.2-43.2h9.1l8.8 33.3 8.8-33.3h9.3l-13.3 43.2v43.8h-9.5zM165.5 126.5l-2-13.3h-16.3l-2 13.3h-9.5l15.4-87h8.6l15.4 87h-9.6zm-17.1-21.7h13.8l-6.9-45.1zM344 126.5l-2-13.3h-16.3l-2 13.3h-9.5l15.4-87h8.6l15.4 87H344zm-17.1-21.7h13.8l-6.9-45.1zM390.2 126.5L376.6 80h-3.8v46.5h-9.4v-87h19.1c13.3 0 16 6.2 16 16.1V64c0 9-3.3 13.9-10.4 15.4l-1.8.4 13.6 46.7h-9.7zm-17.4-54.9h8.7c5 0 7.6-2.7 7.6-7.9v-9.1c0-5.2-2.7-7.9-7.8-7.9h-8.5v24.9z"></path>
</svg>
